HIERARCHY
ROOT Hips
{
  OFFSET 0.000 66.721 0.000
  CHANNELS 6 Xposition Yposition Zposition Zrotation Xrotation Yrotation
  JOINT LeftUpLeg
  {
    OFFSET 7.932 -0.144 2.263
    CHANNELS 6 Xposition Yposition Zposition Zrotation Xrotation Yrotation
    JOINT LeftLeg
    {
      OFFSET 0.000 -30.452 0.000
      CHANNELS 6 Xposition Yposition Zposition Zrotation Xrotation Yrotation
      JOINT LeftFoot
      {
        OFFSET 0.000 -36.124 0.000
        CHANNELS 6 Xposition Yposition Zposition Zrotation Xrotation Yrotation
        End Site
        {
          OFFSET 0.000 0.000 12.100
        }
      }
    }
  }
  JOINT RightUpLeg
  {
    OFFSET -7.932 -0.144 2.263
    CHANNELS 6 Xposition Yposition Zposition Zrotation Xrotation Yrotation
    JOINT RightLeg
    {
      OFFSET 0.000 -30.452 0.000
      CHANNELS 6 Xposition Yposition Zposition Zrotation Xrotation Yrotation
      JOINT RightFoot
      {
        OFFSET 0.000 -36.124 0.000
        CHANNELS 6 Xposition Yposition Zposition Zrotation Xrotation Yrotation
        End Site
        {
          OFFSET 0.000 0.000 12.100
        }
      }
    }
  }
  JOINT Spine
  {
    OFFSET 0.000 34.300 0.000
    CHANNELS 6 Xposition Yposition Zposition Zrotation Xrotation Yrotation
    JOINT Spine1
    {
      OFFSET 0.000 25.000 0.000
      CHANNELS 6 Xposition Yposition Zposition Zrotation Xrotation Yrotation
      JOINT LeftShoulder
      {
        OFFSET 1.800 -0.600 0.200
        CHANNELS 6 Xposition Yposition Zposition Zrotation Xrotation Yrotation
        JOINT LeftArm
        {
          OFFSET 12.852 0.000 0.000
          CHANNELS 6 Xposition Yposition Zposition Zrotation Xrotation Yrotation
          JOINT LeftForeArm
          {
            OFFSET 23.300 0.000 0.000
            CHANNELS 6 Xposition Yposition Zposition Zrotation Xrotation Yrotation
            JOINT LeftHand
            {
              OFFSET 23.300 0.000 0.000
              CHANNELS 6 Xposition Yposition Zposition Zrotation Xrotation Yrotation
              JOINT LeftHandThumb1
              {
                OFFSET 4.877 -1.044 3.608
                CHANNELS 6 Xposition Yposition Zposition Zrotation Xrotation Yrotation
                JOINT LeftHandThumb2
                {
                  OFFSET 2.665 0.000 0.000
                  CHANNELS 6 Xposition Yposition Zposition Zrotation Xrotation Yrotation
                  JOINT LeftHandThumb3
                  {
                    OFFSET 2.543 0.000 0.000
                    CHANNELS 6 Xposition Yposition Zposition Zrotation Xrotation Yrotation
                    End Site
                    {
                      OFFSET 2.667 0.000 0.000
                    }
                  }
                }
              }
              JOINT LeftHandIndex1
              {
                OFFSET 9.232 -0.301 2.144
                CHANNELS 6 Xposition Yposition Zposition Zrotation Xrotation Yrotation
                JOINT LeftHandIndex2
                {
                  OFFSET 4.225 -0.000 0.000
                  CHANNELS 6 Xposition Yposition Zposition Zrotation Xrotation Yrotation
                  JOINT LeftHandIndex3
                  {
                    OFFSET 2.654 0.000 0.000
                    CHANNELS 6 Xposition Yposition Zposition Zrotation Xrotation Yrotation
                    End Site
                    {
                      OFFSET 1.958 0.000 0.000
                    }
                  }
                }
              }
              JOINT LeftHandMiddle1
              {
                OFFSET 8.920 0.000 -0.000
                CHANNELS 6 Xposition Yposition Zposition Zrotation Xrotation Yrotation
                JOINT LeftHandMiddle2
                {
                  OFFSET 4.863 -0.000 -0.000
                  CHANNELS 6 Xposition Yposition Zposition Zrotation Xrotation Yrotation
                  JOINT LeftHandMiddle3
                  {
                    OFFSET 2.765 -0.000 0.000
                    CHANNELS 6 Xposition Yposition Zposition Zrotation Xrotation Yrotation
                    End Site
                    {
                      OFFSET 2.006 0.000 0.000
                    }
                  }
                }
              }
              JOINT LeftHandRing1
              {
                OFFSET 8.689 -0.126 -2.087
                CHANNELS 6 Xposition Yposition Zposition Zrotation Xrotation Yrotation
                JOINT LeftHandRing2
                {
                  OFFSET 4.538 -0.000 0.000
                  CHANNELS 6 Xposition Yposition Zposition Zrotation Xrotation Yrotation
                  JOINT LeftHandRing3
                  {
                    OFFSET 2.305 0.000 0.000
                    CHANNELS 6 Xposition Yposition Zposition Zrotation Xrotation Yrotation
                    End Site
                    {
                      OFFSET 1.923 0.000 -0.000
                    }
                  }
                }
              }
              JOINT LeftHandPinky1
              {
                OFFSET 8.391 -0.817 -3.758
                CHANNELS 6 Xposition Yposition Zposition Zrotation Xrotation Yrotation
                JOINT LeftHandPinky2
                {
                  OFFSET 3.044 -0.000 -0.000
                  CHANNELS 6 Xposition Yposition Zposition Zrotation Xrotation Yrotation
                  JOINT LeftHandPinky3
                  {
                    OFFSET 1.975 0.000 -0.000
                    CHANNELS 6 Xposition Yposition Zposition Zrotation Xrotation Yrotation
                    End Site
                    {
                      OFFSET 1.667 0.000 -0.000
                    }
                  }
                }
              }
            }
          }
        }
      }
      JOINT RightShoulder
      {
        OFFSET -1.800 -0.600 0.200
        CHANNELS 6 Xposition Yposition Zposition Zrotation Xrotation Yrotation
        JOINT RightArm
        {
          OFFSET -12.852 0.000 0.000
          CHANNELS 6 Xposition Yposition Zposition Zrotation Xrotation Yrotation
          JOINT RightForeArm
          {
            OFFSET -23.300 0.000 0.000
            CHANNELS 6 Xposition Yposition Zposition Zrotation Xrotation Yrotation
            JOINT RightHand
            {
              OFFSET -23.300 0.000 0.000
              CHANNELS 6 Xposition Yposition Zposition Zrotation Xrotation Yrotation
              JOINT RightHandThumb1
              {
                OFFSET -4.877 -1.044 3.608
                CHANNELS 6 Xposition Yposition Zposition Zrotation Xrotation Yrotation
                JOINT RightHandThumb2
                {
                  OFFSET -2.665 0.000 -0.000
                  CHANNELS 6 Xposition Yposition Zposition Zrotation Xrotation Yrotation
                  JOINT RightHandThumb3
                  {
                    OFFSET -2.543 0.000 0.000
                    CHANNELS 6 Xposition Yposition Zposition Zrotation Xrotation Yrotation
                    End Site
                    {
                      OFFSET -2.667 0.000 0.000
                    }
                  }
                }
              }
              JOINT RightHandIndex1
              {
                OFFSET -9.232 -0.301 2.144
                CHANNELS 6 Xposition Yposition Zposition Zrotation Xrotation Yrotation
                JOINT RightHandIndex2
                {
                  OFFSET -4.225 0.000 0.000
                  CHANNELS 6 Xposition Yposition Zposition Zrotation Xrotation Yrotation
                  JOINT RightHandIndex3
                  {
                    OFFSET -2.654 0.000 -0.000
                    CHANNELS 6 Xposition Yposition Zposition Zrotation Xrotation Yrotation
                    End Site
                    {
                      OFFSET -1.958 -0.000 0.000
                    }
                  }
                }
              }
              JOINT RightHandMiddle1
              {
                OFFSET -8.920 0.000 -0.000
                CHANNELS 6 Xposition Yposition Zposition Zrotation Xrotation Yrotation
                JOINT RightHandMiddle2
                {
                  OFFSET -4.863 0.000 0.000
                  CHANNELS 6 Xposition Yposition Zposition Zrotation Xrotation Yrotation
                  JOINT RightHandMiddle3
                  {
                    OFFSET -2.765 -0.000 -0.000
                    CHANNELS 6 Xposition Yposition Zposition Zrotation Xrotation Yrotation
                    End Site
                    {
                      OFFSET -2.006 0.000 0.000
                    }
                  }
                }
              }
              JOINT RightHandRing1
              {
                OFFSET -8.689 -0.126 -2.087
                CHANNELS 6 Xposition Yposition Zposition Zrotation Xrotation Yrotation
                JOINT RightHandRing2
                {
                  OFFSET -4.538 0.000 -0.000
                  CHANNELS 6 Xposition Yposition Zposition Zrotation Xrotation Yrotation
                  JOINT RightHandRing3
                  {
                    OFFSET -2.305 0.000 0.000
                    CHANNELS 6 Xposition Yposition Zposition Zrotation Xrotation Yrotation
                    End Site
                    {
                      OFFSET -1.923 -0.000 0.000
                    }
                  }
                }
              }
              JOINT RightHandPinky1
              {
                OFFSET -8.391 -0.817 -3.758
                CHANNELS 6 Xposition Yposition Zposition Zrotation Xrotation Yrotation
                JOINT RightHandPinky2
                {
                  OFFSET -3.044 -0.000 0.000
                  CHANNELS 6 Xposition Yposition Zposition Zrotation Xrotation Yrotation
                  JOINT RightHandPinky3
                  {
                    OFFSET -1.975 0.000 -0.000
                    CHANNELS 6 Xposition Yposition Zposition Zrotation Xrotation Yrotation
                    End Site
                    {
                      OFFSET -1.667 0.000 0.000
                    }
                  }
                }
              }
            }
          }
        }
      }
      JOINT Neck
      {
        OFFSET 0.000 0.800 0.000
        CHANNELS 6 Xposition Yposition Zposition Zrotation Xrotation Yrotation
        JOINT Head
        {
          OFFSET 0.000 7.115 0.000
          CHANNELS 6 Xposition Yposition Zposition Zrotation Xrotation Yrotation
          End Site
          {
            OFFSET 0.000 12.142 0.000
          }
        }
      }
    }
  }
}
MOTION
Frames:	4
Frame Time:	0.033333
126.12556 78.83221 -205.77795 -4.85034 1.76757 -25.01946 7.65133 0.30708 3.50564 19.91912 -3.50680 1.93672 0.21719 -36.44946 -0.07577 0.11156 -8.71861 -7.90922 -0.20849 -26.91980 0.26870 12.29601 22.62619 -18.01035 -8.64066 0.42843 3.34439 30.99279 -30.75666 10.78073 0.05226 -38.39712 -0.00789 -17.56680 19.14635 -2.86304 -1.05827 -35.13477 -0.76776 -0.36260 27.52652 2.63753 0.00008 28.38618 0.02499 -0.04913 2.76775 1.40146 0.00305 21.12454 0.00445 0.31707 3.21932 0.84923 1.22884 -0.18888 0.59177 -6.98597 3.38915 -25.81046 12.36405 0.01255 -0.00074 -98.50038 9.11139 -18.51171 21.60371 -0.00717 0.00531 -136.67990 27.78573 -34.85178 28.93361 0.00429 0.00237 -6.91681 17.77951 9.71706 4.87701 -1.04399 3.60799 -38.84870 -18.17666 4.02960 2.66500 0.00001 0.00000 -0.00000 0.00000 5.00000 2.54300 0.00000 0.00000 0.00001 0.00000 60.00000 9.23200 -0.30097 2.14399 2.00000 0.00000 -0.00000 4.22502 -0.00002 0.00000 2.00000 -0.00000 0.00000 2.65399 0.00000 0.00000 2.00000 0.00000 -0.00000 8.91999 0.00002 -0.00002 -80.00000 -0.00000 0.00000 4.86300 -0.00001 -0.00001 -90.00000 -0.00000 0.00000 2.76501 -0.00002 0.00000 -70.00000 -0.00000 0.00000 8.68900 -0.12599 -2.08702 -80.00000 -0.00000 0.00000 4.53798 -0.00001 0.00000 -90.00000 -0.00000 0.00000 2.30498 0.00000 0.00001 -70.00000 -0.00000 0.00000 8.39100 -0.81698 -3.75801 2.00000 0.00000 -0.00000 3.04399 -0.00001 -0.00002 2.00000 -0.00000 0.00000 1.97500 0.00001 -0.00001 2.00000 0.00000 -0.00000 -0.77485 0.17125 0.58676 -8.19911 -6.31558 37.34157 -8.92645 -0.00541 0.00179 102.02700 -4.95514 26.61306 -29.32175 0.00568 0.00331 2.21208 -0.13510 17.08563 -28.95427 -0.05395 0.01683 -149.38556 -43.84076 -106.26177 -4.87700 -1.04399 3.60799 37.43813 21.26626 8.20656 -2.66500 0.00001 -0.00000 0.00001 0.00000 -5.00000 -2.54301 0.00000 0.00001 0.00001 0.00000 -60.00000 -9.23200 -0.30100 2.14399 80.00000 -0.00000 0.00001 -4.22499 0.00000 0.00001 90.00000 -0.00000 0.00001 -2.65399 0.00000 -0.00001 70.00000 -0.00000 0.00001 -8.91999 0.00000 -0.00001 80.00000 -0.00000 0.00001 -4.86300 0.00001 0.00001 90.00000 -0.00000 0.00001 -2.76499 -0.00002 -0.00001 70.00000 -0.00000 0.00001 -8.68900 -0.12603 -2.08700 80.00000 -0.00000 0.00001 -4.53799 0.00000 -0.00001 90.00000 -0.00000 0.00001 -2.30499 0.00000 0.00000 70.00000 -0.00000 0.00001 -8.39100 -0.81701 -3.75800 80.00000 -0.00000 0.00001 -3.04401 -0.00001 0.00001 90.00000 -0.00000 0.00001 -1.97499 0.00002 -0.00001 70.00000 -0.00000 0.00001 0.00674 0.68771 -0.00013 -0.00511 0.00099 -0.00110 -0.00806 6.25455 0.00692 7.50624 -2.69588 -3.95548 
126.14322 79.11269 -205.50053 -4.73857 1.73875 -24.59872 7.55961 0.34872 3.49414 17.71609 -1.51712 -3.31511 0.33881 -36.18004 -0.19040 2.78506 -15.56407 -5.38986 -0.29113 -26.88758 0.28764 14.63128 27.20770 -21.18478 -8.57516 0.39406 3.36463 30.22248 -30.60809 8.59071 0.05092 -38.39236 -0.00789 -18.63294 20.06542 -1.30475 -0.81300 -35.78323 -0.63504 -0.82631 25.58847 3.50548 0.00008 28.24025 0.01780 0.05847 2.22583 1.25773 0.00305 20.99990 0.00445 0.21730 3.50543 0.65025 1.22884 -0.18888 0.59177 -7.14076 3.44228 -25.66561 12.36405 0.01255 -0.00074 -98.81091 9.22555 -18.36970 21.60371 -0.00717 0.00531 -136.40416 27.91173 -34.89818 28.93361 0.00429 0.00237 -6.34508 16.92784 10.00400 4.87701 -1.04399 3.60799 -38.84870 -18.17666 4.02960 2.66500 0.00001 0.00000 -0.00000 0.00000 5.00000 2.54300 0.00000 0.00000 0.00001 0.00000 60.00000 9.23200 -0.30097 2.14399 2.00000 0.00000 -0.00000 4.22502 -0.00002 0.00000 2.00000 -0.00000 0.00000 2.65399 0.00000 0.00000 2.00000 0.00000 -0.00000 8.91999 0.00002 -0.00002 -80.00000 -0.00000 0.00000 4.86300 -0.00001 -0.00001 -90.00000 -0.00000 0.00000 2.76501 -0.00002 0.00000 -70.00000 -0.00000 0.00000 8.68900 -0.12599 -2.08702 -80.00000 -0.00000 0.00000 4.53798 -0.00001 0.00000 -90.00000 -0.00000 0.00000 2.30498 0.00000 0.00001 -70.00000 -0.00000 0.00000 8.39100 -0.81698 -3.75801 2.00000 0.00000 -0.00000 3.04399 -0.00001 -0.00002 2.00000 -0.00000 0.00000 1.97500 0.00001 -0.00001 2.00000 0.00000 -0.00000 -0.77485 0.17125 0.58676 -8.07579 -6.17264 37.13892 -8.91441 -0.00541 0.00179 102.29296 -5.52050 26.48346 -29.32175 0.00568 0.00331 0.01257 1.12664 17.72326 -27.77146 -0.11675 0.01401 -80.92677 -40.48391 -52.70768 -4.87700 -1.04399 3.60799 37.43813 21.26626 8.20656 -2.66500 0.00001 -0.00000 0.00001 0.00000 -5.00000 -2.54301 0.00000 0.00001 0.00001 0.00000 -60.00000 -9.23200 -0.30100 2.14399 80.00000 -0.00000 0.00001 -4.22499 0.00000 0.00001 90.00000 -0.00000 0.00001 -2.65399 0.00000 -0.00001 70.00000 -0.00000 0.00001 -8.91999 0.00000 -0.00001 80.00000 -0.00000 0.00001 -4.86300 0.00001 0.00001 90.00000 -0.00000 0.00001 -2.76499 -0.00002 -0.00001 70.00000 -0.00000 0.00001 -8.68900 -0.12603 -2.08700 80.00000 -0.00000 0.00001 -4.53799 0.00000 -0.00001 90.00000 -0.00000 0.00001 -2.30499 0.00000 0.00000 70.00000 -0.00000 0.00001 -8.39100 -0.81701 -3.75800 80.00000 -0.00000 0.00001 -3.04401 -0.00001 0.00001 90.00000 -0.00000 0.00001 -1.97499 0.00002 -0.00001 70.00000 -0.00000 0.00001 0.00674 0.68771 -0.00013 -0.00511 0.00099 -0.00110 -0.00806 6.23756 0.00692 7.55146 -2.44309 -5.57242 
126.14084 79.21455 -205.38672 -4.65966 1.87023 -24.78054 7.55135 0.40458 3.47154 16.26292 0.18317 -6.47679 0.23452 -36.00629 -0.31329 -0.84008 -21.57499 -2.98950 -1.19854 -31.32798 1.19631 8.05384 28.78806 -11.08742 -8.53752 0.35312 3.37347 30.17155 -30.57329 7.72947 0.03841 -38.40570 -0.00789 -19.50569 20.97467 -0.13185 -0.60821 -36.26545 -0.49738 -1.12447 24.16509 4.03714 0.00008 28.22130 0.01233 0.16918 1.75435 1.41480 0.00305 20.92333 0.00445 0.15185 3.67160 0.77539 1.22884 -0.19113 0.59177 -7.23451 3.46988 -25.54355 12.36405 0.01255 -0.00074 -99.11209 9.31570 -18.27497 21.60710 -0.00717 0.00531 -136.32582 27.92737 -34.88770 28.93361 0.00429 0.00237 -5.67322 16.18781 9.71446 4.87701 -1.04399 3.60799 -38.84870 -18.17666 4.02960 2.66500 0.00001 0.00000 -0.00000 0.00000 5.00000 2.54300 0.00000 0.00000 0.00001 0.00000 60.00000 9.23200 -0.30097 2.14399 2.00000 0.00000 -0.00000 4.22502 -0.00002 0.00000 2.00000 -0.00000 0.00000 2.65399 0.00000 0.00000 2.00000 0.00000 -0.00000 8.91999 0.00002 -0.00002 -80.00000 -0.00000 0.00000 4.86300 -0.00001 -0.00001 -90.00000 -0.00000 0.00000 2.76501 -0.00002 0.00000 -70.00000 -0.00000 0.00000 8.68900 -0.12599 -2.08702 -80.00000 -0.00000 0.00000 4.53798 -0.00001 0.00000 -90.00000 -0.00000 0.00000 2.30498 0.00000 0.00001 -70.00000 -0.00000 0.00000 8.39100 -0.81698 -3.75801 2.00000 0.00000 -0.00000 3.04399 -0.00001 -0.00002 2.00000 -0.00000 0.00000 1.97500 0.00001 -0.00001 2.00000 0.00000 -0.00000 -0.77485 0.17125 0.58676 -7.99476 -6.06770 36.95411 -8.90716 -0.00541 0.00179 102.44358 -5.84583 26.40173 -29.32175 0.00568 0.00331 -0.96910 1.29615 18.60547 -26.80990 -0.11014 -0.01396 -91.74094 -47.17074 -65.58804 -4.87700 -1.04399 3.60799 37.43813 21.26626 8.20656 -2.66500 0.00001 -0.00000 0.00001 0.00000 -5.00000 -2.54301 0.00000 0.00001 0.00001 0.00000 -60.00000 -9.23200 -0.30100 2.14399 80.00000 -0.00000 0.00001 -4.22499 0.00000 0.00001 90.00000 -0.00000 0.00001 -2.65399 0.00000 -0.00001 70.00000 -0.00000 0.00001 -8.91999 0.00000 -0.00001 80.00000 -0.00000 0.00001 -4.86300 0.00001 0.00001 90.00000 -0.00000 0.00001 -2.76499 -0.00002 -0.00001 70.00000 -0.00000 0.00001 -8.68900 -0.12603 -2.08700 80.00000 -0.00000 0.00001 -4.53799 0.00000 -0.00001 90.00000 -0.00000 0.00001 -2.30499 0.00000 0.00000 70.00000 -0.00000 0.00001 -8.39100 -0.81701 -3.75800 80.00000 -0.00000 0.00001 -3.04401 -0.00001 0.00001 90.00000 -0.00000 0.00001 -1.97499 0.00002 -0.00001 70.00000 -0.00000 0.00001 0.00674 0.68771 -0.00013 -0.00511 0.00099 -0.00110 -0.00806 6.22349 0.00692 7.57533 -2.33696 -7.54116 
126.12907 79.31747 -205.36172 -4.61795 2.03983 -24.86456 7.53065 0.43767 3.45411 15.29903 1.40107 -8.73857 0.13452 -35.93000 -0.33597 -3.21485 -26.04619 -1.20610 -1.36943 -35.04984 1.39369 3.49467 28.80472 -3.70098 -8.49956 0.33735 3.38159 29.94421 -30.53888 6.85826 0.02820 -38.40842 -0.00789 -19.74520 21.31566 0.70012 -0.44702 -36.64801 -0.37631 -1.31279 23.32149 4.31235 0.00008 28.19025 0.00835 0.26566 1.41238 1.50925 0.00305 20.86045 0.00232 0.13701 3.74651 0.85542 1.22884 -0.19171 0.58991 -7.29952 3.48802 -25.44970 12.36405 0.01255 -0.00074 -99.35141 9.34026 -18.25042 21.61076 -0.00717 0.00531 -136.41742 27.82080 -34.85046 28.93361 0.00429 0.00237 -4.83943 15.61816 10.02051 4.87701 -1.04399 3.60799 -38.84870 -18.17666 4.02960 2.66500 0.00001 0.00000 -0.00000 0.00000 5.00000 2.54300 0.00000 0.00000 0.00001 0.00000 60.00000 9.23200 -0.30097 2.14399 2.00000 0.00000 -0.00000 4.22502 -0.00002 0.00000 2.00000 -0.00000 0.00000 2.65399 0.00000 0.00000 2.00000 0.00000 -0.00000 8.91999 0.00002 -0.00002 -80.00000 -0.00000 0.00000 4.86300 -0.00001 -0.00001 -90.00000 -0.00000 0.00000 2.76501 -0.00002 0.00000 -70.00000 -0.00000 0.00000 8.68900 -0.12599 -2.08702 -80.00000 -0.00000 0.00000 4.53798 -0.00001 0.00000 -90.00000 -0.00000 0.00000 2.30498 0.00000 0.00001 -70.00000 -0.00000 0.00000 8.39100 -0.81698 -3.75801 2.00000 0.00000 -0.00000 3.04399 -0.00001 -0.00002 2.00000 -0.00000 0.00000 1.97500 0.00001 -0.00001 2.00000 0.00000 -0.00000 -0.77485 0.17125 0.58676 -7.93245 -5.98758 36.81155 -8.90660 -0.00541 0.00179 102.11498 -5.23032 26.31740 -29.32173 0.00568 0.00331 1.92365 -0.44382 17.64158 -25.29198 0.02433 0.08359 -81.36120 -47.45921 -51.88699 -4.87700 -1.04399 3.60799 37.43813 21.26626 8.20656 -2.66500 0.00001 -0.00000 0.00001 0.00000 -5.00000 -2.54301 0.00000 0.00001 0.00001 0.00000 -60.00000 -9.23200 -0.30100 2.14399 80.00000 -0.00000 0.00001 -4.22499 0.00000 0.00001 90.00000 -0.00000 0.00001 -2.65399 0.00000 -0.00001 70.00000 -0.00000 0.00001 -8.91999 0.00000 -0.00001 80.00000 -0.00000 0.00001 -4.86300 0.00001 0.00001 90.00000 -0.00000 0.00001 -2.76499 -0.00002 -0.00001 70.00000 -0.00000 0.00001 -8.68900 -0.12603 -2.08700 80.00000 -0.00000 0.00001 -4.53799 0.00000 -0.00001 90.00000 -0.00000 0.00001 -2.30499 0.00000 0.00000 70.00000 -0.00000 0.00001 -8.39100 -0.81701 -3.75800 80.00000 -0.00000 0.00001 -3.04401 -0.00001 0.00001 90.00000 -0.00000 0.00001 -1.97499 0.00002 -0.00001 70.00000 -0.00000 0.00001 0.00674 0.68771 -0.00013 -0.00511 0.00099 -0.00110 -0.00806 6.21094 0.00692 7.59937 -2.30653 -9.01240 
